<?xml version="1.0" encoding="iso-8859-1"?>
<!-- Uploaded to: SVG Repo, www.svgrepo.com, Generator: SVG Repo Mixer Tools -->
<svg height="800px" width="800px" version="1.1" id="Layer_1" xmlns="http://www.w3.org/2000/svg" xmlns:xlink="http://www.w3.org/1999/xlink" 
	 viewBox="0 0 504 504" xml:space="preserve">
<path style="fill:#F4EFEF;" d="M346.2,4h-276c-8,0-14,8.4-14,16v464c0,7.6,6.4,16,14,16H435c7.6,0,13.2-8,13.2-16V108L346.2,4z"/>
<path style="fill:#D8D8D8;" d="M343.4,8.4V10v71.2c0,13.6,15.2,26.8,28.8,26.8h72.4L343.4,8.4z"/>
<polygon style="fill:#33A5D2;" points="194.2,192.4 338.2,160.4 338.2,189.6 194.2,221.6 "/>
<path d="M192.2,360c-2.4,0-4-1.6-4-4V192.4c0-2,1.2-3.6,3.2-4l144-32c1.2-0.4,2.4,0,3.2,0.8s1.6,2,1.6,3.2V324c0,2.4-1.6,4-4,4
	s-4-1.6-4-4V165.2l-136,30.4V356C196.2,358.4,194.6,360,192.2,360z"/>
<path d="M194.2,225.6c-2,0-3.6-1.2-4-3.2s0.8-4.4,3.2-4.8l140-31.2c2-0.4,4.4,0.8,4.8,3.2c0.4,2-0.8,4.4-3.2,4.8l-140,31.2
	C195,225.6,194.6,225.6,194.2,225.6z"/>
<path d="M166.2,400.4c-17.6,0-32-14.4-32-32s14.4-32,32-32s32,14.4,32,32S183.8,400.4,166.2,400.4z M166.2,344
	c-13.2,0-24,10.8-24,24s10.8,24,24,24s24-10.8,24-24S179.4,344,166.2,344z"/>
<path d="M310.2,368.8c-17.6,0-32-14.4-32-32s14.4-32,32-32s32,14.4,32,32S327.8,368.8,310.2,368.8z M310.2,312.4
	c-13.2,0-24,10.8-24,24s10.8,24,24,24s24-10.8,24-24S323.4,312.4,310.2,312.4z"/>
<path d="M431.8,504H71c-10.8,0-19.2-8.8-19.2-20V20C51.8,8.8,60.2,0,71,0h272c1.2,0,2,0.4,2.8,1.2l105.2,104
	c0.8,0.8,1.2,1.6,1.2,2.8v376C452.2,495.2,443,504,431.8,504z M71,8c-6.4,0-11.2,5.2-11.2,12v464c0,6.8,4.8,12,11.2,12h360.8
	c6.8,0,12.4-5.6,12.4-12V109.6L341.4,8H71z"/>
<path d="M412.2,112h-38.4c-16.8,0-33.6-17.6-33.6-34.8V8c0-2.4,1.6-4,4-4s4,1.6,4,4v69.2c0,12.8,13.6,26.8,25.6,26.8h38.4
	c2.4,0,4,1.6,4,4S414.6,112,412.2,112z"/>
</svg>